<?xml version="1.0" encoding="UTF-8" standalone="no"?>
<!-- Created with Inkscape (http://www.inkscape.org/) -->

<svg
   xmlns:dc="http://purl.org/dc/elements/1.1/"
   xmlns:cc="http://creativecommons.org/ns#"
   xmlns:rdf="http://www.w3.org/1999/02/22-rdf-syntax-ns#"
   xmlns:svg="http://www.w3.org/2000/svg"
   xmlns="http://www.w3.org/2000/svg"
   xmlns:sodipodi="http://sodipodi.sourceforge.net/DTD/sodipodi-0.dtd"
   xmlns:inkscape="http://www.inkscape.org/namespaces/inkscape"
   width="56.444443mm"
   height="27.776415mm"
   id="svg5665"
   version="1.1"
   inkscape:version="0.91 r13725"
   sodipodi:docname="residence.svg">
  <defs
     id="defs3" />
  <sodipodi:namedview
     inkscape:document-units="mm"
     id="base"
     pagecolor="#ffffff"
     bordercolor="#666666"
     borderopacity="1.0"
     inkscape:pageopacity="0.0"
     inkscape:pageshadow="2"
     inkscape:zoom="2.0775001"
     inkscape:cx="99.999997"
     inkscape:cy="49.210184"
     inkscape:current-layer="layer1"
     showgrid="false"
     inkscape:window-width="1344"
     inkscape:window-height="795"
     inkscape:window-x="138"
     inkscape:window-y="50"
     inkscape:window-maximized="0"
     units="mm"
     fit-margin-top="0"
     fit-margin-left="0"
     fit-margin-right="0"
     fit-margin-bottom="0" />
  <metadata
     id="metadata4">
    <rdf:RDF>
      <cc:Work
         rdf:about="">
        <dc:format>image/svg+xml</dc:format>
        <dc:type
           rdf:resource="http://purl.org/dc/dcmitype/StillImage" />
        <dc:title></dc:title>
      </cc:Work>
    </rdf:RDF>
  </metadata>
  <g
     inkscape:label="Layer 1"
     inkscape:groupmode="layer"
     id="layer1"
     transform="translate(-38.217458,-548.17428)">
    <g
       id="g3042"
       transform="matrix(0.31383631,0,0,0.31383631,18.983123,423.06274)">
      <path
         sodipodi:nodetypes="ccccccccccc"
         style="fill:#000000"
         inkscape:connector-curvature="0"
         d="m 105.68219,578.24622 63.89175,-50.85076 95.16374,52.58573 58.37093,-36.53265 72.41639,38.18915 -0.82875,-7.44801 -72.50643,-37.58311 -55.13192,37.56338 -96.79427,-54.61766 -63.65022,50.42404 z"
         id="path11-6" />
      <path
         sodipodi:nodetypes="ccccc"
         style="fill:#000000"
         inkscape:connector-curvature="0"
         d="m 260.55217,555.7738 -8.00414,-2.73892 0.99827,-83.95575 4.35835,-7.83852 z"
         id="path13-27" />
      <path
         style="fill:#000000"
         inkscape:connector-curvature="0"
         d="m 119.11284,700.84541 7.47549,4.55981 -0.38047,-144.60935 -4.1551,4.79668 -2.93992,135.25286 z"
         id="path15-2" />
      <path
         sodipodi:nodetypes="cssc"
         style="fill:#000000"
         inkscape:connector-curvature="0"
         d="m 694.95155,589.96771 c -0.50114,0.21203 -1.69921,-4.33188 -21.19447,-4.82915 -32.59721,-0.83146 -239.78992,2.11843 -265.50995,2.39542 -21.53926,0.23196 -45.20187,1.99702 -13.55086,5.49927"
         id="path17-1" />
      <path
         sodipodi:nodetypes="ccccccc"
         style="fill:#000000"
         inkscape:connector-curvature="0"
         d="m 228.68111,480.66772 7.67014,1.74196 85.62334,-55.78139 58.61916,35.21882 4.8485,-6.94234 -65.54881,-35.7103 z"
         id="path19-6" />
      <path
         sodipodi:nodetypes="ccccc"
         style="fill:#000000"
         inkscape:connector-curvature="0"
         d="m 365.06885,449.12528 -2.65705,94.91913 c 0,0 6.45088,4.06462 6.65906,4.41159 0.20777,0.34627 1.04052,-93.88763 1.04052,-93.88763 z"
         id="path21-0" />
      <path
         sodipodi:nodetypes="ccccc"
         style="fill:#000000"
         inkscape:connector-curvature="0"
         d="m 380.7485,566.06503 0,137.08882 5.92634,6.35782 1.3872,-134.85914 c 0,0 -11.82212,-9.42043 -7.31354,-8.5875 z"
         id="path23-2" />
      <path
         sodipodi:nodetypes="ccccc"
         style="fill:#000000"
         inkscape:connector-curvature="0"
         d="m 263.00308,574.45555 c 3.17004,0.76632 0,126.12451 0,126.12451 l 6.58458,0.52843 0.97551,-121.28639 c 0,0 -10.73063,-6.13364 -7.56009,-5.36655 z"
         id="path25-9" />
      <path
         sodipodi:nodetypes="ccccc"
         inkscape:connector-curvature="0"
         id="path27-3"
         d="m 292.14225,587.69622 c 2.73848,2.06048 -0.0629,115.52708 -0.0629,115.52708 l 6.40789,-3.49415 0.21039,-110.98212 c 0,0 -9.29433,-3.11128 -6.55542,-1.05081 z"
         style="fill:#000000" />
      <path
         style="fill:#000000"
         inkscape:connector-curvature="0"
         d="m 150.99942,644.27106 7.4755,3.69262 -5.74132,-66.81119 -4.15525,3.88444 2.42107,59.23413 z"
         id="path29-6" />
      <path
         style="fill:#000000"
         inkscape:connector-curvature="0"
         d="m 208.0297,640.57845 7.47549,3.69261 -6.01001,-55.2566 -4.15525,3.88443 2.68977,47.67956 z"
         id="path31-92" />
      <path
         style="fill:#000000"
         inkscape:connector-curvature="0"
         d="m 154.89585,639.61721 -3.93451,7.35067 66.96281,-3.55439 -3.74621,-4.27937 -59.28209,0.48309 z"
         id="path33-4" />
      <path
         style="fill:#000000"
         inkscape:connector-curvature="0"
         d="m 149.92676,581.58621 -3.93535,7.35067 66.96295,-3.55368 -3.74621,-4.28007 -59.28139,0.48308 z"
         id="path35-8" />
      <path
         style="fill:#000000"
         inkscape:connector-curvature="0"
         d="m 162.64427,612.3373 -3.93521,7.35066 52.21916,-3.73633 -3.74621,-4.28008 -44.53774,0.66575 z"
         id="path37-6" />
      <path
         style="fill:#000000"
         inkscape:connector-curvature="0"
         d="m 181.75051,633.75247 7.4755,3.69262 -8.74845,-58.02677 -4.15454,3.88444 5.42749,50.44971 z"
         id="path39-9" />
      <path
         style="fill:#000000"
         inkscape:connector-curvature="0"
         d="m 104.52752,581.15249 -0.69361,-21.15495 63.43036,-52.53298 96.51923,48.66265 -4.75893,7.07139 -90.90133,-49.19087 -56.65959,44.94888 1.73403,13.52571 -8.67016,8.67017 z"
         id="path41-3" />
      <path
         sodipodi:nodetypes="ccccccc"
         style="fill:#000000"
         inkscape:connector-curvature="0"
         d="m 220.43902,468.03555 4.23166,4.03309 96.95693,-66.39988 67.15988,46.95474 4.27554,-4.65049 -73.47496,-49.32078 z"
         id="path43-0" />
      <path
         sodipodi:nodetypes="ccccccc"
         id="path2999"
         d="m 256.441,559.85418 8.81536,5.17902 54.41924,-36.97177 90.30817,44.50235 4.84849,-6.94235 -97.1962,-44.57653 z"
         inkscape:connector-curvature="0"
         style="fill:#000000" />
      <path
         id="path3001"
         d="m 417.67272,667.8973 6.60068,3.26048 -5.06944,-58.99265 -3.66899,3.42986 2.13775,52.30231 z"
         inkscape:connector-curvature="0"
         style="fill:#000000" />
      <path
         id="path3003"
         d="m 468.02907,664.63681 6.60068,3.26049 -5.3067,-48.79025 -3.66898,3.42987 2.375,42.09989 z"
         inkscape:connector-curvature="0"
         style="fill:#000000" />
      <path
         id="path3005"
         d="m 421.11318,663.78806 -3.47408,6.49047 59.12654,-3.13845 -3.30782,-3.77858 -52.34464,0.42656 z"
         inkscape:connector-curvature="0"
         style="fill:#000000" />
      <path
         id="path3007"
         d="m 416.72559,612.54809 -3.47482,6.49047 59.12666,-3.13782 -3.30781,-3.7792 -52.34403,0.42655 z"
         inkscape:connector-curvature="0"
         style="fill:#000000" />
      <path
         id="path3009"
         d="m 427.95484,639.70055 -3.4747,6.49046 46.10825,-3.29909 -3.30781,-3.7792 -39.32574,0.58783 z"
         inkscape:connector-curvature="0"
         style="fill:#000000" />
      <path
         id="path3011"
         d="m 444.82519,658.60964 6.60068,3.26048 -7.72467,-51.23622 -3.66835,3.42986 4.79234,44.54588 z"
         inkscape:connector-curvature="0"
         style="fill:#000000" />
      <path
         inkscape:connector-curvature="0"
         id="path3013"
         d="m 403.19659,579.335 0,3.89642 120.89609,-0.21157 c 18.59277,-2.37753 170.24874,-3.86506 166.98124,-4.72507 -2.72003,-0.71593 -23.78655,-1.00547 -54.09561,-1.02259 -65.58687,-0.0371 -174.1585,1.20198 -233.78172,2.06281 z"
         style="fill:#000000" />
      <path
         sodipodi:nodetypes="ccccccc"
         id="path3017"
         d="m 377.33424,439.02376 7.67014,4.79006 185.25257,-3.15916 122.40295,67.05352 5.90278,-3.7795 -127.22404,-67.86577 z"
         inkscape:connector-curvature="0"
         style="fill:#000000" />
      <path
         sodipodi:nodetypes="cscc"
         style="fill:#000000"
         inkscape:connector-curvature="0"
         d="m 663.28082,497.31654 c -1.66531,0.3714 23.38507,-4.00091 -53.36587,-3.82596 l -232.21997,1.58243 -6.46329,5.18382"
         id="path3019" />
      <path
         id="path3021"
         d="m 694.38201,507.85932 c -1.66531,0.3714 -16.67747,-4.00091 -93.42842,-3.82596 l -231.69283,0.52816 -6.99043,6.23809"
         inkscape:connector-curvature="0"
         style="fill:#000000"
         sodipodi:nodetypes="cscc" />
      <path
         style="fill:#000000"
         inkscape:connector-curvature="0"
         d="m 424.53016,574.40074 6.20786,3.18755 -1.08405,-48.84043 -3.79248,2.53346 -1.33133,43.11942 z"
         id="path3023" />
      <path
         style="fill:#000000"
         inkscape:connector-curvature="0"
         d="m 475.36999,575.99023 6.44068,2.89964 -5.17807,-43.39051 -3.58005,3.05027 2.31744,37.4406 z"
         id="path3025" />
      <path
         style="fill:#000000"
         inkscape:connector-curvature="0"
         d="m 657.85784,574.55669 6.35748,4.23444 -3.47932,-73.02601 -3.66356,4.12074 0.7854,64.67083 z"
         id="path3027" />
      <path
         style="fill:#000000"
         inkscape:connector-curvature="0"
         d="m 425.31004,529.09938 -3.3906,6.33314 57.6935,-3.06176 -3.22764,-3.6876 -51.07526,0.41622 z"
         id="path3029" />
      <path
         style="fill:#000000"
         inkscape:connector-curvature="0"
         d="m 436.2671,555.5937 -3.39047,6.33313 44.99064,-3.21912 -3.22764,-3.6876 -38.37253,0.57359 z"
         id="path3031" />
      <path
         style="fill:#000000"
         inkscape:connector-curvature="0"
         d="m 452.72853,574.3128 6.44069,2.9131 -7.53742,-45.77721 -3.57945,3.06442 4.67618,39.79969 z"
         id="path3033" />
      <path
         sodipodi:nodetypes="cccccc"
         id="path3035"
         d="m 86.827755,701.88618 6.309109,5.81186 -2.649445,-204.26201 -3.710232,5.55988 0.05055,192.89027 z"
         inkscape:connector-curvature="0"
         style="fill:#000000" />
      <path
         style="fill:#000000"
         inkscape:connector-curvature="0"
         d="m 603.55202,613.89439 -6.60069,-3.26049 5.06945,58.99265 3.66898,-3.42986 -2.13774,-52.3023 z"
         id="path3045" />
      <path
         style="fill:#000000"
         inkscape:connector-curvature="0"
         d="m 553.19567,617.15488 -6.60069,-3.26049 5.3067,48.79024 3.66899,-3.42986 -2.375,-42.09989 z"
         id="path3047" />
      <path
         style="fill:#000000"
         inkscape:connector-curvature="0"
         d="m 600.11156,618.00362 3.47408,-6.49046 -59.12654,3.13844 3.30782,3.77858 52.34464,-0.42656 z"
         id="path3049" />
      <path
         style="fill:#000000"
         inkscape:connector-curvature="0"
         d="m 604.49915,669.24359 3.47482,-6.49046 -59.12666,3.13781 3.30781,3.7792 52.34403,-0.42655 z"
         id="path3051" />
      <path
         style="fill:#000000"
         inkscape:connector-curvature="0"
         d="m 593.2699,642.09113 3.47469,-6.49046 -46.10825,3.29909 3.30782,3.7792 39.32574,-0.58783 z"
         id="path3053" />
      <path
         style="fill:#000000"
         inkscape:connector-curvature="0"
         d="m 576.39955,623.18204 -6.60068,-3.26048 7.72466,51.23622 3.66836,-3.42986 -4.79234,-44.54588 z"
         id="path3055" />
      <path
         style="fill:#000000"
         d="m 263.8252,437.61795 c -9.92706,0.36225 -19.85254,0.82672 -29.78775,0.90429 -28.13313,0.41837 -56.26739,0.75586 -84.40079,1.15634 -10.39858,0.14178 -20.79716,0.28355 -31.19574,0.42533 0,1.2988 0,2.59761 0,3.89642 34.26268,-0.0946 68.52576,-0.0804 102.78806,-0.28209 13.05359,-0.99345 26.28486,-0.55996 39.14978,-3.31994 4.41932,-0.95198 8.80226,-2.1653 13.31973,-2.56878 -3.29042,-0.11603 -6.57956,-0.29842 -9.87329,-0.21157 z"
         id="path3057"
         inkscape:connector-curvature="0" />
      <path
         sodipodi:nodetypes="cccc"
         inkscape:connector-curvature="0"
         id="path3059"
         d="m 123.38765,443.11576 -2.75518,-2.75519 -28.519128,28.81833 c -70.886943,81.6684 -1.815902,9.959 31.274308,-26.06314 z"
         style="fill:#000000" />
      <path
         id="path3061"
         d="m 256.2498,497.31654 c -1.08246,0.3714 15.20046,-4.00091 -34.6882,-3.82596 l -150.9446,1.58243 -4.201189,5.18382"
         inkscape:connector-curvature="0"
         style="fill:#000000"
         sodipodi:nodetypes="cscc" />
      <path
         sodipodi:nodetypes="cscc"
         style="fill:#000000"
         inkscape:connector-curvature="0"
         d="m 259.68757,505.91097 c -1.08246,0.37141 15.20046,-4.00091 -34.68819,-3.82595 l -150.944606,1.58243 -4.201188,5.18382"
         id="path3063" />
      <path
         id="path3065"
         d="m 547.75043,574.40678 6.21283,3.17785 -1.16034,-48.83868 -3.78852,2.53938 -1.26397,43.12145 z"
         inkscape:connector-curvature="0"
         style="fill:#000000" />
      <path
         id="path3067"
         d="m 598.55685,575.99023 6.44069,2.89964 -5.17807,-43.39051 -3.58005,3.05027 2.31743,37.4406 z"
         inkscape:connector-curvature="0"
         style="fill:#000000" />
      <path
         id="path3069"
         d="m 548.4969,529.09938 -3.39059,6.33314 57.6935,-3.06176 -3.22764,-3.6876 -51.07527,0.41622 z"
         inkscape:connector-curvature="0"
         style="fill:#000000" />
      <path
         id="path3071"
         d="m 559.45397,555.5937 -3.39047,6.33313 44.99064,-3.21912 -3.22764,-3.6876 -38.37253,0.57359 z"
         inkscape:connector-curvature="0"
         style="fill:#000000" />
      <path
         id="path3073"
         d="m 575.9154,574.3128 6.44069,2.9131 -7.53743,-45.77721 -3.57944,3.06442 4.67618,39.79969 z"
         inkscape:connector-curvature="0"
         style="fill:#000000" />
      <path
         style="fill:#000000"
         inkscape:connector-curvature="0"
         d="m 690.01656,584.24269 c -2.24932,6.86021 -2.22861,14.52277 -2.87379,21.85572 -0.6233,14.79121 0.8434,29.53254 1.17141,44.30112 0.78686,20.0846 1.87342,40.16219 1.96685,60.28364 1.05785,-3.04842 2.06682,-6.15668 2.76805,-9.39989 0.69587,-3.09386 0.82864,-6.35048 0.64683,-9.55975 -0.17025,-31.52971 -0.44646,-63.08314 -2.02425,-94.55008 -0.29754,-4.34205 -0.32967,-8.82515 -1.53168,-12.93076 l -0.0529,-0.0241 -0.0705,0.0241 z m 0.17631,127.98303 c 2.4e-4,0.10513 0.0845,-0.10224 0,0 z"
         id="path3075" />
      <path
         sodipodi:nodetypes="cccccc"
         inkscape:connector-curvature="0"
         style="fill:#000000"
         d="m 342.53041,587.88593 c 2.56218,0.575 -0.0588,113.95458 -0.0588,113.95458 l 5.99537,-0.97509 0.19685,-112.10335 c 0,0 -8.69598,-1.45115 -6.1334,-0.87614 z"
         id="path3081" />
      <path
         id="path3085"
         d="m 350.10307,585.6965 c -0.27698,2.56219 -56.52188,-0.0588 -56.52188,-0.0588 l 0.46969,5.99537 53.99955,0.19685 c 0,0 2.32961,-8.69599 2.05264,-6.1334 z"
         style="fill:#000000"
         inkscape:connector-curvature="0" />
      <path
         sodipodi:nodetypes="cccccc"
         id="path3087"
         d="m 316.94892,587.44926 c 2.56218,0.54389 -0.0588,108.5683 -0.0588,108.5683 l 5.99537,-0.9223 0.19685,-106.035 c 0,0 -8.69598,-2.15487 -6.1334,-1.611 z"
         style="fill:#000000"
         inkscape:connector-curvature="0" />
      <path
         sodipodi:nodetypes="cccccc"
         inkscape:connector-curvature="0"
         style="fill:#000000"
         d="m 314.94797,596.38699 c 0.0982,2.68116 -17.40604,0.40462 -17.40604,0.40462 l 1.35075,6.60032 14.89664,-0.99265 c 0,0 1.06043,-8.69385 1.15865,-6.01227 z"
         id="path3089" />
      <path
         id="path3203"
         d="m 344.20191,596.38699 c 0.0982,2.68116 -17.40604,0.40462 -17.40604,0.40462 l 1.35075,6.60032 14.89664,-0.99265 c 0,0 1.06043,-8.69385 1.15865,-6.01227 z"
         style="fill:#000000"
         inkscape:connector-curvature="0"
         sodipodi:nodetypes="cccccc" />
      <path
         sodipodi:nodetypes="cccccc"
         inkscape:connector-curvature="0"
         style="fill:#000000"
         d="m 344.20191,636.27873 c 0.0982,2.68116 -17.40604,0.40462 -17.40604,0.40462 l 1.35075,6.60032 14.89664,-0.99265 c 0,0 1.06043,-8.69385 1.15865,-6.01227 z"
         id="path3205" />
      <path
         id="path3207"
         d="m 314.94797,636.27873 c 0.0982,2.68116 -17.40604,0.40462 -17.40604,0.40462 l 1.35075,6.60032 14.89664,-0.99265 c 0,0 1.06043,-8.69385 1.15865,-6.01227 z"
         style="fill:#000000"
         inkscape:connector-curvature="0"
         sodipodi:nodetypes="cccccc" />
      <path
         sodipodi:nodetypes="cccccc"
         inkscape:connector-curvature="0"
         style="fill:#000000"
         d="m 314.94797,677.5002 c 0.0982,2.68116 -17.40604,0.40462 -17.40604,0.40462 l 1.35075,6.60032 14.89664,-0.99265 c 0,0 1.06043,-8.69385 1.15865,-6.01227 z"
         id="path3209" />
      <path
         id="path3211"
         d="m 344.20191,677.5002 c 0.0982,2.68116 -17.40604,0.40462 -17.40604,0.40462 l 1.35075,6.60032 14.89664,-0.99265 c 0,0 1.06043,-8.69385 1.15865,-6.01227 z"
         style="fill:#000000"
         inkscape:connector-curvature="0"
         sodipodi:nodetypes="cccccc" />
    </g>
  </g>
</svg>
